<svg width="26.000000" height="26.000000" viewBox="0 0 26 26" fill="none" xmlns="http://www.w3.org/2000/svg" xmlns:xlink="http://www.w3.org/1999/xlink">
	<desc>
			Created with Pixso.
	</desc>
	<defs>
		<clipPath id="clip1_1766">
			<rect id="like 1" rx="0.000000" width="25.000000" height="25.000000" transform="translate(26.500000 26.500000) rotate(-179.999985)" fill="white" fill-opacity="0"/>
		</clipPath>
	</defs>
	<rect id="like 1" rx="0.000000" width="25.000000" height="25.000000" transform="translate(26.500000 26.500000) rotate(-179.999985)" fill="#FFFFFF" fill-opacity="0"/>
	<g clip-path="url(#clip1_1766)">
		<path id="Vector" d="M20.63 13.73L23.68 13.73C24.1 13.73 24.44 13.39 24.44 12.97L24.44 0.76C24.44 0.34 24.1 0 23.68 0L20.63 0C20.21 0 19.86 0.34 19.86 0.76L19.86 12.97C19.86 13.39 20.21 13.73 20.63 13.73Z" fill="#FFFFFF" fill-opacity="1.000000" fill-rule="nonzero"/>
		<path id="Vector" d="M1.56 11.71C1.7 12.89 2.8 13.73 3.99 13.73L9.94 13.73C9.44 14.64 9.17 17.2 9.18 18.25C9.2 19.98 10.63 21.37 12.36 21.37L13 21.37C13.42 21.37 13.76 21.02 13.76 20.6C13.76 18.84 14.44 15.65 15.74 14.36C16.61 13.48 17.36 13.17 18.34 12.68L18.34 1.23C16.84 0.73 14.94 0 12.04 0L7.05 0C5.4 0 4.12 1.52 4.76 3.13C3.79 3.39 3.07 4.28 3.07 5.34C3.07 5.63 3.13 5.92 3.23 6.18C1.6 6.63 1 8.65 2.13 9.92C1.71 10.38 1.48 11.02 1.56 11.71Z" fill="#FFFFFF" fill-opacity="1.000000" fill-rule="nonzero"/>
	</g>
</svg>
