<svg width="22.000000" height="22.000000" viewBox="0 0 22 22" fill="none" xmlns="http://www.w3.org/2000/svg" xmlns:xlink="http://www.w3.org/1999/xlink">
	<desc>
			Created with Pixso.
	</desc>
	<defs>
		<clipPath id="clip1_1632">
			<rect id="eye 2" rx="0.000000" width="21.000000" height="21.000000" transform="matrix(1 0 0 -1 0.5 22.5)" fill="white" fill-opacity="0"/>
		</clipPath>
	</defs>
	<rect id="eye 2" rx="0.000000" width="21.000000" height="21.000000" transform="matrix(1 0 0 -1 0.5 22.5)" fill="#FFFFFF" fill-opacity="0"/>
	<g clip-path="url(#clip1_1632)">
		<path id="Vector" d="M21.91 11.26C21.74 11.51 17.58 17.41 11 17.41C5.35 17.41 0.32 11.54 0.1 11.29C-0.04 11.12 -0.04 10.87 0.1 10.7C0.32 10.45 5.35 4.58 11 4.58C16.64 4.58 21.67 10.45 21.89 10.7C22.02 10.86 22.03 11.09 21.91 11.26ZM11 5.5C6.47 5.5 2.16 9.81 1.07 11C2.16 12.18 6.46 16.5 11 16.5C16.29 16.5 20.03 12.18 20.94 11.02C19.89 9.88 15.56 5.5 11 5.5Z" fill="#FFFFFF" fill-opacity="1.000000" fill-rule="nonzero"/>
		<path id="Vector" d="M11 14.66C8.97 14.66 7.33 13.02 7.33 11C7.33 8.97 8.97 7.33 11 7.33C13.02 7.33 14.66 8.97 14.66 11C14.66 13.02 13.02 14.66 11 14.66ZM11 8.25C9.48 8.25 8.25 9.48 8.25 11C8.25 12.51 9.48 13.75 11 13.75C12.51 13.75 13.75 12.51 13.75 11C13.75 9.48 12.51 8.25 11 8.25Z" fill="#FFFFFF" fill-opacity="1.000000" fill-rule="nonzero"/>
	</g>
</svg>
