<svg width="26.000000" height="26.000000" viewBox="0 0 26 26" fill="none" xmlns="http://www.w3.org/2000/svg" xmlns:xlink="http://www.w3.org/1999/xlink">
	<desc>
			Created with Pixso.
	</desc>
	<defs>
		<clipPath id="clip1_1775">
			<rect id="like 1" rx="0.000000" width="25.000000" height="25.000000" transform="translate(0.500000 0.500000)" fill="white" fill-opacity="0"/>
		</clipPath>
	</defs>
	<rect id="like 1" rx="0.000000" width="25.000000" height="25.000000" transform="translate(0.500000 0.500000)" fill="#FFFFFF" fill-opacity="0"/>
	<g clip-path="url(#clip1_1775)">
		<path id="Vector" d="M5.36 12.26L2.31 12.26C1.89 12.26 1.55 12.6 1.55 13.02L1.55 25.23C1.55 25.65 1.89 26 2.31 26L5.36 26C5.78 26 6.13 25.65 6.13 25.23L6.13 13.02C6.13 12.6 5.78 12.26 5.36 12.26Z" fill="#FFFFFF" fill-opacity="1.000000" fill-rule="nonzero"/>
		<path id="Vector" d="M24.43 14.28C24.29 13.1 23.19 12.26 22 12.26L16.05 12.26C16.55 11.35 16.82 8.79 16.81 7.74C16.79 6.01 15.36 4.62 13.63 4.62L13 4.62C12.57 4.62 12.23 4.97 12.23 5.39C12.23 7.15 11.55 10.34 10.25 11.63C9.38 12.51 8.63 12.82 7.65 13.31L7.65 24.76C9.15 25.26 11.05 26 13.95 26L18.94 26C20.59 26 21.87 24.47 21.23 22.86C22.2 22.6 22.92 21.71 22.92 20.65C22.92 20.36 22.86 20.07 22.76 19.81C24.39 19.36 25 17.34 23.86 16.07C24.28 15.61 24.51 14.97 24.43 14.28Z" fill="#FFFFFF" fill-opacity="1.000000" fill-rule="nonzero"/>
	</g>
</svg>
