<svg width="16.000000" height="16.000000" viewBox="0 0 16 16" fill="none" xmlns="http://www.w3.org/2000/svg" xmlns:xlink="http://www.w3.org/1999/xlink">
	<desc>
			Created with Pixso.
	</desc>
	<defs>
		<clipPath id="clip1_1626">
			<rect id="comment 1" rx="0.000000" width="15.000000" height="15.000000" transform="translate(0.500000 0.500000)" fill="white" fill-opacity="0"/>
		</clipPath>
	</defs>
	<rect id="comment 1" rx="0.000000" width="15.000000" height="15.000000" transform="translate(0.500000 0.500000)" fill="#FFFFFF" fill-opacity="0"/>
	<g clip-path="url(#clip1_1626)">
		<path id="Vector" d="M2.32 15.04L1.19 15.04L1.99 14.24C2.42 13.81 2.69 13.24 2.77 12.63C1.64 11.89 0.81 10.92 0.37 9.8C-0.07 8.69 -0.12 7.46 0.21 6.25C0.62 4.8 1.56 3.48 2.88 2.53C4.31 1.5 6.08 0.95 8.02 0.95C10.46 0.95 12.52 1.65 13.97 2.98C15.27 4.17 16 5.78 16 7.52C16 8.36 15.82 9.17 15.49 9.95C15.14 10.75 14.62 11.46 13.96 12.06C12.51 13.4 10.46 14.1 8.02 14.1C7.12 14.1 6.17 13.98 5.33 13.76C4.53 14.58 3.45 15.04 2.32 15.04ZM8.02 1.89C4.14 1.89 1.75 4.21 1.12 6.5C0.51 8.67 1.4 10.72 3.5 11.98L3.73 12.12L3.72 12.4C3.71 12.94 3.58 13.46 3.35 13.93C3.91 13.74 4.42 13.4 4.82 12.92L5.02 12.69L5.32 12.78C6.14 13.02 7.1 13.16 8.02 13.16C12.85 13.16 15.06 10.23 15.06 7.52C15.06 6.05 14.44 4.69 13.33 3.67C12.06 2.51 10.22 1.89 8.02 1.89Z" fill="#FFFFFF" fill-opacity="1.000000" fill-rule="nonzero"/>
	</g>
</svg>
